<?xml version="1.0" encoding="UTF-8"?>
<svg version="1.1" xmlns="http://www.w3.org/2000/svg" width="800" height="800">
<path d="M0 0 C0.85390804 -0.00297112 1.70781607 -0.00594224 2.58760011 -0.0090034 C5.45394829 -0.01768705 8.32025469 -0.01919838 11.18661499 -0.02069092 C13.23991993 -0.0253194 15.29322402 -0.0303441 17.3465271 -0.03573608 C22.92942793 -0.04886091 28.51231673 -0.05530544 34.09523058 -0.05974674 C37.58422412 -0.0626779 41.07321438 -0.06678283 44.56220627 -0.07125092 C55.48120376 -0.08492731 66.40019374 -0.09459274 77.3191992 -0.09845281 C89.91795934 -0.10293124 102.51661086 -0.12046862 115.11533797 -0.1494534 C124.8564732 -0.17108479 134.5975779 -0.1811579 144.33873689 -0.18249393 C150.15509298 -0.18354109 155.97134699 -0.18942992 161.78767776 -0.20731354 C167.26239089 -0.22381888 172.73692548 -0.22593768 178.21165466 -0.21717453 C180.21670892 -0.21640543 182.22177287 -0.22073012 184.22680283 -0.23063278 C201.45998493 -0.31072661 214.4868814 1.79190337 227.54354858 13.98419189 C240.51993519 27.49922096 240.15608641 42.78248768 239.86386108 60.39044189 C239.84376254 62.50370619 239.82551772 64.61698898 239.80917358 66.73028564 C239.7654507 71.86746697 239.69660834 77.00374702 239.61386108 82.14044189 C240.40952069 82.13930273 241.2051803 82.13816357 242.0249508 82.13698989 C289.18896974 82.06984623 336.35298347 82.01837744 383.51704063 81.98724591 C389.18090599 81.98349382 394.84477126 81.97961085 400.50863647 81.97564697 C402.19998693 81.97446658 402.19998693 81.97446658 403.92550608 81.97326233 C422.17956063 81.96021073 440.43358682 81.93655822 458.68762455 81.90898351 C477.41989146 81.88092252 496.15214352 81.86426416 514.88443059 81.85817641 C526.44194087 81.85406142 537.99937099 81.84106746 549.55685659 81.81669249 C557.48375563 81.80082677 565.41061326 81.79604344 573.33752701 81.79993776 C577.90997138 81.80185799 582.4822757 81.79892764 587.05469513 81.78282547 C591.24531923 81.76817593 595.43570974 81.76752219 599.62634482 81.77774521 C601.13797536 81.77900783 602.64962075 81.7752452 604.16122226 81.76579235 C620.09515096 81.67198723 632.44582263 84.60293658 644.21542358 95.64825439 C653.08271824 104.8621534 657.72548498 115.1614698 657.74808216 127.98242188 C657.75254 129.15826434 657.75699785 130.33410681 657.76159078 131.54558086 C657.76131424 133.47730758 657.76131424 133.47730758 657.7610321 135.44805908 C657.76433296 136.83316812 657.76805899 138.2182762 657.77217358 139.60338306 C657.78217664 143.40932018 657.78590765 147.21524153 657.78856289 151.02118993 C657.79247101 155.12637198 657.80204903 159.2315416 657.81077576 163.3367157 C657.83052642 173.25098133 657.84060486 183.16524795 657.84950355 193.07952833 C657.85388897 197.75100744 657.85925514 202.42248541 657.86449242 207.09396362 C657.88150373 222.62783065 657.89599704 238.16169699 657.90324116 253.6955719 C657.90515098 257.72553508 657.90707132 261.75549826 657.9090271 265.78546143 C657.90951084 266.78706106 657.90999458 267.7886607 657.91049298 268.82061183 C657.91879007 285.0392951 657.94412201 301.25790454 657.97660778 317.47655559 C658.00970484 334.13655095 658.02769233 350.79650884 658.0308854 367.45653725 C658.0330481 376.80698857 658.0417616 386.15733224 658.06734657 395.50775146 C658.0890898 403.47244001 658.09708622 411.43699476 658.08737979 419.40170962 C658.08284549 423.46209378 658.08467027 427.52220209 658.10414124 431.58254814 C658.12184863 435.3074701 658.12071462 439.0319165 658.10524394 442.75684404 C658.10176814 444.72636958 658.11783746 446.69590054 658.13484842 448.66535568 C658.03931894 461.9880424 654.55140081 474.63877696 645.35604858 484.58184814 C634.9085753 494.52168558 624.13978673 498.45670554 609.94710255 498.3977108 C608.34486679 498.40296991 608.34486679 498.40296991 606.71026263 498.40833527 C603.11865437 498.41766466 599.52720772 498.41272189 595.93559265 498.40786743 C593.339478 498.41160291 590.74336447 498.41620402 588.14725274 498.42159808 C582.4962973 498.43190114 576.84537613 498.43474134 571.19441223 498.43268585 C562.79100711 498.42963665 554.38763991 498.43795807 545.98424216 498.4484351 C530.10211107 498.46778293 514.21999287 498.47340363 498.33785138 498.47454922 C486.07267147 498.47546814 473.80749661 498.47958394 461.54231834 498.48595047 C458.01238686 498.48774555 454.48245538 498.48952518 450.95252389 498.49130023 C449.6362098 498.49196337 449.6362098 498.49196337 448.29330351 498.49263991 C423.60729871 498.50494947 398.92129567 498.51284093 374.23528767 498.51195335 C372.83903182 498.51190662 372.83903182 498.51190662 371.41456879 498.51185894 C366.69665408 498.51169272 361.97873937 498.51149464 357.26082466 498.51128952 C356.32382342 498.51124963 355.38682217 498.51120974 354.42142695 498.51116864 C352.52658145 498.51108777 350.63173594 498.51100417 348.73689043 498.51091786 C319.25779126 498.50969242 289.7787381 498.52470382 260.2996521 498.55206299 C227.18276052 498.58278566 194.06589917 498.59999536 160.94899243 498.59813654 C157.41748917 498.59798728 153.88598591 498.59788987 150.35448265 498.59782791 C149.05015731 498.59779295 149.05015731 498.59779295 147.71948197 498.59775728 C133.72730088 498.59769574 119.73515974 498.61046649 105.74299053 498.62769244 C91.67941465 498.64464815 77.61589721 498.64662326 63.55231676 498.6334738 C55.19860544 498.62608413 46.84507165 498.62974304 38.49137915 498.64935848 C32.2518037 498.66277107 26.01241748 498.65524803 19.77285089 498.63961203 C17.24998195 498.63653286 14.72709381 498.64020886 12.20424751 498.65133218 C8.77245949 498.66546063 5.34158268 498.65485991 1.90982533 498.63821983 C0.93261279 498.64815619 -0.04459974 498.65809255 -1.05142477 498.66833001 C-14.44484368 498.53123073 -24.76062324 493.18935903 -34.45254517 484.23028564 C-42.82416086 475.42472011 -46.63006356 463.62217416 -46.64340782 451.63307667 C-46.6469139 450.91862372 -46.65041997 450.20417077 -46.65403229 449.46806774 C-46.66330018 447.08565286 -46.658435 444.70348492 -46.65356445 442.32106018 C-46.65730304 440.59100258 -46.6619054 438.86094666 -46.6672951 437.13089341 C-46.67951476 432.38538575 -46.67926584 427.63994865 -46.67690635 422.89442885 C-46.67649792 417.77292588 -46.68753986 412.65144545 -46.69702148 407.529953 C-46.713627 397.49890166 -46.71913084 387.46787382 -46.72024624 377.43680988 C-46.72119697 369.28159714 -46.72530849 361.12639215 -46.73164749 352.97118187 C-46.74925899 329.84253481 -46.75848655 306.71390631 -46.75698654 283.5852525 C-46.75690663 282.33865299 -46.75682672 281.09205348 -46.75674438 279.80767822 C-46.75666262 278.55955407 -46.75658086 277.31142991 -46.75649662 276.02548381 C-46.75568384 255.80098146 -46.77481982 235.57655361 -46.80302112 215.35207281 C-46.83175884 194.5787335 -46.84556091 173.80543051 -46.84383357 153.03207082 C-46.84316995 141.37224792 -46.84864967 129.71250311 -46.87018967 118.05269814 C-46.88841316 108.1246114 -46.89273918 98.19663814 -46.87917082 88.26854191 C-46.87264701 83.20565516 -46.87250285 78.14298605 -46.88987732 73.08012009 C-46.90563897 68.43938216 -46.90271284 63.79903391 -46.88530906 59.15830531 C-46.88224596 57.48537495 -46.88584535 55.81241527 -46.89702921 54.13951949 C-46.98389792 40.21611639 -45.06325447 28.4397627 -36.38613892 17.14044189 C-35.51988892 15.84106689 -35.51988892 15.84106689 -34.63613892 14.51544189 C-25.32824072 4.69043824 -13.30163918 -0.01443182 0 0 Z " fill="#A5A5A5" transform="translate(94.38613891601563,164.85955810546875)"/>
</svg>
